<?xml version="1.0" standalone="no"?>
<!DOCTYPE svg PUBLIC "-//W3C//DTD SVG 20010904//EN"
 "http://www.w3.org/TR/2001/REC-SVG-20010904/DTD/svg10.dtd">
<svg version="1.0" xmlns="http://www.w3.org/2000/svg"
 width="512.000000pt" height="512.000000pt" viewBox="0 0 512.000000 512.000000"
 preserveAspectRatio="xMidYMid meet">

<g transform="translate(0.000000,512.000000) scale(0.100000,-0.100000)"
fill="#000000" stroke="none">
<path d="M2535 4903 c-12 -2 -129 -96 -260 -209 -132 -114 -258 -221 -281
-240 l-40 -33 -55 14 c-156 42 -500 60 -559 30 -30 -16 -60 -61 -60 -91 0 -9
14 -46 30 -81 58 -123 105 -370 135 -718 31 -365 53 -465 141 -635 79 -153
212 -304 353 -399 131 -89 371 -181 473 -181 16 0 31 -6 33 -13 3 -6 4 -201 3
-432 l-3 -420 -42 76 c-203 368 -553 688 -992 908 -332 167 -704 273 -1006
288 -113 5 -122 4 -147 -16 -40 -32 -46 -70 -31 -185 86 -678 353 -1265 758
-1671 387 -386 911 -629 1458 -674 477 -40 1094 170 1524 520 498 405 823
1045 926 1824 15 115 9 154 -31 186 -25 20 -34 21 -147 16 -179 -9 -382 -49
-595 -119 -626 -204 -1140 -598 -1401 -1074 -23 -41 -45 -76 -50 -80 -5 -3 -9
168 -9 424 0 468 -3 442 55 442 12 0 66 11 119 24 298 76 560 284 700 556 83
162 108 261 131 531 38 448 80 685 145 823 34 72 36 86 15 126 -29 57 -59 63
-255 57 -96 -4 -211 -13 -255 -22 -44 -9 -93 -18 -110 -21 -27 -4 -57 18 -315
231 -157 129 -290 235 -297 235 -6 0 -17 2 -25 4 -7 2 -22 1 -33 -1z m99 -300
c39 -32 126 -103 193 -159 l123 -102 -57 -32 c-121 -68 -242 -181 -300 -277
-14 -24 -29 -43 -33 -43 -4 0 -19 19 -33 43 -56 94 -178 207 -294 274 l-53 29
188 162 c103 88 189 161 191 161 2 1 36 -25 75 -56z m-947 -343 c163 -22 295
-61 418 -123 106 -54 226 -173 273 -269 71 -145 72 -159 72 -761 l0 -540 -49
7 c-96 13 -243 73 -341 139 -67 45 -176 154 -226 224 -56 78 -110 193 -134
288 -11 41 -26 159 -35 262 -26 309 -59 546 -96 695 -10 42 -19 79 -19 82 0 9
49 7 137 -4z m1883 6 c0 -3 -11 -51 -24 -108 -33 -138 -62 -342 -81 -573 -28
-336 -54 -444 -142 -594 -47 -80 -167 -209 -247 -266 -111 -78 -257 -139 -364
-152 l-54 -6 5 539 c4 510 6 543 26 619 33 123 76 200 161 286 130 131 298
206 550 244 87 13 170 18 170 11z m-2953 -1736 c219 -39 478 -128 697 -237
729 -365 1136 -983 1136 -1724 l0 -140 -57 6 c-286 33 -607 143 -858 295 -567
343 -935 925 -1074 1699 -12 63 -21 116 -21 118 0 8 77 1 177 -17z m4059 -7
c-3 -16 -15 -77 -26 -138 -159 -832 -579 -1426 -1235 -1746 -215 -104 -464
-178 -687 -204 l-58 -6 0 140 c0 744 406 1357 1143 1728 196 98 439 183 638
222 57 11 113 22 124 24 11 3 39 5 63 6 42 1 43 0 38 -26z"/>
</g>
</svg>
