<?xml version="1.0" standalone="no"?>
<!DOCTYPE svg PUBLIC "-//W3C//DTD SVG 20010904//EN"
 "http://www.w3.org/TR/2001/REC-SVG-20010904/DTD/svg10.dtd">
<svg version="1.0" xmlns="http://www.w3.org/2000/svg"
 width="512.000000pt" height="512.000000pt" viewBox="0 0 512.000000 512.000000"
 preserveAspectRatio="xMidYMid meet">

<g transform="translate(0.000000,512.000000) scale(0.100000,-0.100000)"
fill="#000000" stroke="none">
<path d="M2508 4890 c-9 -6 -137 -114 -285 -240 -147 -127 -273 -228 -280
-226 -28 11 -166 36 -254 47 -52 6 -152 9 -221 7 -117 -3 -128 -5 -152 -27
-41 -39 -43 -79 -7 -154 66 -141 108 -376 146 -826 9 -102 22 -214 30 -250 69
-331 296 -615 608 -761 90 -43 223 -84 305 -95 l52 -7 0 -436 0 -435 -66 110
c-98 164 -184 273 -324 413 -302 302 -707 535 -1161 665 -206 60 -412 95 -552
95 -63 0 -71 -2 -99 -31 l-31 -30 6 -92 c7 -104 46 -323 83 -472 145 -572 418
-1037 806 -1370 406 -349 942 -555 1444 -556 164 0 275 12 434 47 382 85 724
256 1017 508 356 306 612 716 766 1226 64 210 127 537 127 658 0 46 -4 58 -31
84 l-30 31 -117 -6 c-405 -22 -906 -198 -1294 -456 -306 -204 -520 -425 -695
-719 l-68 -114 -3 428 c-1 236 0 434 2 440 2 6 36 16 75 22 384 64 721 340
851 699 44 123 57 195 75 410 35 423 81 680 145 817 17 35 30 72 30 82 0 31
-38 84 -68 95 -38 15 -346 5 -452 -16 -47 -9 -98 -18 -115 -21 -27 -4 -57 18
-308 225 -153 126 -285 232 -293 235 -24 9 -77 7 -96 -4z m-708 -650 c188 -36
337 -103 443 -201 83 -75 133 -151 171 -259 l31 -85 3 -563 3 -564 -43 7
c-228 38 -452 185 -587 384 -100 146 -134 263 -156 529 -26 315 -64 574 -110
756 l-8 29 79 -8 c43 -3 122 -15 174 -25z m1765 3 c-47 -184 -83 -432 -110
-750 -22 -271 -56 -387 -156 -534 -136 -201 -366 -350 -593 -384 l-48 -8 4
539 c5 512 6 543 26 617 60 221 201 372 431 462 102 40 301 80 415 84 37 1 38
0 31 -26z"/>
</g>
</svg>
