<?xml version="1.0" standalone="no"?>
<!DOCTYPE svg PUBLIC "-//W3C//DTD SVG 20010904//EN"
 "http://www.w3.org/TR/2001/REC-SVG-20010904/DTD/svg10.dtd">
<svg version="1.0" xmlns="http://www.w3.org/2000/svg"
 width="512.000000pt" height="512.000000pt" viewBox="0 0 512.000000 512.000000"
 preserveAspectRatio="xMidYMid meet">

<g transform="translate(0.000000,512.000000) scale(0.100000,-0.100000)"
fill="#000000" stroke="none">
<path d="M2500 4883 c-14 -9 -135 -111 -270 -227 -135 -115 -252 -215 -260
-222 -12 -10 -26 -10 -75 2 -180 42 -497 59 -555 29 -30 -15 -60 -61 -60 -90
0 -9 13 -44 30 -79 16 -35 38 -96 49 -137 28 -100 67 -360 86 -569 25 -291 34
-354 60 -444 116 -401 462 -709 873 -776 l72 -12 0 -436 0 -437 -65 110 c-285
480 -758 839 -1375 1045 -303 101 -660 156 -740 115 -55 -29 -61 -66 -34 -244
100 -680 358 -1231 766 -1633 352 -347 815 -575 1303 -643 175 -25 465 -16
630 19 325 68 590 178 850 351 466 309 804 787 988 1395 64 210 127 537 127
658 0 46 -4 58 -31 84 l-30 31 -117 -6 c-397 -21 -912 -202 -1293 -456 -308
-205 -522 -426 -696 -720 l-68 -115 -3 430 c-1 236 0 434 2 440 2 6 37 16 78
23 300 52 570 229 736 481 118 178 162 327 187 621 36 438 79 682 144 823 17
36 31 72 31 81 0 30 -30 75 -62 91 -46 24 -329 14 -483 -16 -82 -16 -114 -19
-127 -11 -10 6 -131 104 -270 219 -139 114 -264 216 -278 225 -31 22 -89 22
-120 0z m428 -528 c11 -10 2 -19 -48 -49 l-62 -36 -106 87 c-58 49 -116 96
-129 106 -22 18 -23 17 -144 -88 -67 -58 -127 -105 -133 -105 -6 0 -35 16 -65
34 l-54 34 188 160 187 160 177 -145 c97 -80 182 -151 189 -158z m-1164 -111
c449 -74 688 -328 685 -729 l0 -80 -19 74 c-63 239 -210 385 -480 475 -82 27
-281 66 -339 66 -5 0 -19 44 -31 98 -12 53 -25 103 -27 109 -6 15 67 10 211
-13z m1796 9 c0 -4 -10 -52 -22 -105 l-22 -98 -31 0 c-54 0 -216 -31 -300 -57
-267 -84 -435 -245 -495 -477 l-19 -71 0 75 c-3 393 231 643 673 721 106 18
216 24 216 12z m-2974 -1718 c124 -22 334 -78 451 -121 129 -47 376 -168 486
-237 604 -383 926 -946 927 -1623 l0 -120 -70 7 c-370 40 -760 201 -1060 438
-97 77 -253 234 -335 336 -241 299 -416 688 -503 1117 -46 224 -46 218 -13
218 16 0 68 -7 117 -15z m4072 -92 c-134 -756 -486 -1330 -1028 -1682 -256
-166 -594 -288 -885 -319 l-78 -8 6 175 c6 183 21 292 62 449 162 611 651
1099 1363 1358 161 59 456 130 548 133 l31 1 -19 -107z"/>
</g>
</svg>
